<svg height="512" viewBox="0 0 64 64" width="512" xmlns="http://www.w3.org/2000/svg"><path d="m59 57h-54a2.015 2.015 0 0 0 -2 2 2.006 2.006 0 0 0 2 2h54a2.015 2.015 0 0 0 2-2 2.006 2.006 0 0 0 -2-2z" fill="#9bc9ff"/><path d="m32.99 5.57a2 2 0 0 0 -1.98 0l-25.37 14.49a1.994 1.994 0 0 0 -.79 2.63l.2.42a2.007 2.007 0 0 0 2.79.84l2.16-1.23 21.01-12.01a2 2 0 0 1 1.98 0l21.01 12.01 2.16 1.23a2.007 2.007 0 0 0 2.79-.84l.2-.42a1.994 1.994 0 0 0 -.79-2.63l-4.36-2.49v-10.57a2.015 2.015 0 0 0 2-2 2.006 2.006 0 0 0 -2-2h-8a2.015 2.015 0 0 0 -2 2 2 2 0 0 0 1.99 2v5.99z" fill="#9bc9ff"/><path d="m22 35a2.006 2.006 0 0 0 -2 2v12h22a2.006 2.006 0 0 0 2-2v-10a2.006 2.006 0 0 0 -2-2h-2a12.167 12.167 0 0 1 -16 0z" fill="#9bc9ff"/><circle cx="32" cy="27" fill="#9bc9ff" r="8"/><g fill="#57a4ff"><path d="m59 56h-4v-31.562l.668.381a3.006 3.006 0 0 0 1.491.394 3 3 0 0 0 2.68-1.656l.21-.417a3 3 0 0 0 -1.2-3.947l-3.849-2.202v-9.175a2.993 2.993 0 0 0 -1-5.816h-8a2.993 2.993 0 0 0 -1.015 5.811v3.457l-11.497-6.568a3.013 3.013 0 0 0 -2.976 0l-25.366 14.493a3 3 0 0 0 -1.194 3.948l.208.415a3 3 0 0 0 4.172 1.263l.668-.381v31.562h-4a3 3 0 0 0 0 6h54a3 3 0 0 0 0-6zm-13-52h8a1 1 0 0 1 0 2h-8a1 1 0 0 1 0-2zm.985 4h6.015v7.848l-6.015-3.437zm-39.645 15.083a1 1 0 0 1 -1.392-.422l-.208-.416a1 1 0 0 1 .4-1.315l25.36-14.494a1 1 0 0 1 .992 0l25.365 14.5a1 1 0 0 1 .4 1.314l-.21.418a1 1 0 0 1 -1.391.421l-23.168-13.247a3.007 3.007 0 0 0 -2.976 0zm3.66.217 20.5-11.722a1 1 0 0 1 .992 0l20.508 11.722v32.7h-42zm48 36.7h-54a1 1 0 0 1 0-2h54a1 1 0 0 1 0 2z"/><path d="m13 52h4v2h-4z"/><path d="m47 52h4v2h-4z"/><path d="m19 52h2v2h-2z"/><path d="m43 52h2v2h-2z"/><path d="m32 36a9 9 0 1 0 -9-9 9.01 9.01 0 0 0 9 9zm0-16a7 7 0 1 1 -7 7 7.008 7.008 0 0 1 7-7z"/><path d="m42 34h-2a1 1 0 0 0 -.685.271 11.168 11.168 0 0 1 -14.63 0 1 1 0 0 0 -.685-.271h-2a3 3 0 0 0 -3 3v12a1 1 0 0 0 1 1h22a3 3 0 0 0 3-3v-10a3 3 0 0 0 -3-3zm1 13a1 1 0 0 1 -1 1h-21v-11a1 1 0 0 1 1-1h1.616a13.215 13.215 0 0 0 16.768 0h1.616a1 1 0 0 1 1 1z"/></g></svg>